<svg width="145" height="30" viewBox="0 0 145 30" fill="none" xmlns="http://www.w3.org/2000/svg">
<g clip-path="url(#clip0_445_44)">
<path d="M19.0256 18.0247L14.3047 29.9998H2L13.8416 0H26.1771L21.4158 12.0276H38.3764L43.1385 0H55.4736L43.6009 29.9998H31.2652L35.9869 18.0247H19.0256Z" fill="white"/>
<path d="M63.3754 23.9954L61.0122 30H48.6768L54.6291 14.9994C58.576 4.99892 66.9748 0.00030899 79.8237 0.00030899H99.0974L96.6897 5.99733H80.4994C74.5368 5.99733 70.8913 7.02696 68.3217 12.0279H91.265L88.8541 18.0249H72.1413C68.2701 18.0249 64.7931 20.3933 63.3754 23.9954Z" fill="white"/>
<path d="M143.844 0.000197411L141.449 5.99737H127.57L118.094 30H105.789L115.235 5.99737H101.358L103.754 0.000197411H143.844Z" fill="white"/>
</g>
<defs>
<clipPath id="clip0_445_44">
<rect width="145" height="30" fill="white"/>
</clipPath>
</defs>
</svg>
